<?xml version="1.0" standalone="no"?>
<!DOCTYPE svg PUBLIC "-//W3C//DTD SVG 20010904//EN"
 "http://www.w3.org/TR/2001/REC-SVG-20010904/DTD/svg10.dtd">
<svg version="1.0" xmlns="http://www.w3.org/2000/svg"
 width="144.000000pt" height="133.000000pt" viewBox="0 0 144.000000 133.000000"
 preserveAspectRatio="xMidYMid meet">
<metadata>
Created by potrace 1.12, written by Peter Selinger 2001-2015
</metadata>
<g transform="translate(-178.000000,317.000000) scale(0.100000,-0.100000)"
fill="#000000" stroke="none">
<path d="M2330 2937 l0 -233 -47 -17 c-102 -35 -216 -57 -356 -69 l-147 -11 0
-165 0 -165 84 7 c383 29 630 209 742 540 31 90 54 213 54 287 l0 59 -165 0
-165 0 0 -233z"/>
<path d="M2981 2699 c-236 -50 -408 -168 -521 -357 -68 -116 -130 -333 -130
-459 l0 -43 165 0 165 0 2 227 3 228 55 22 c83 33 244 62 379 70 l121 6 0 164
0 163 -72 -1 c-40 0 -116 -9 -167 -20z"/>
</g>
</svg>
